<svg xmlns="http://www.w3.org/2000/svg" xmlns:xlink="http://www.w3.org/1999/xlink" width="480" height="203.781" viewBox="0 0 480 203.781">
  <defs>
    <linearGradient id="linear-gradient" x1="0.499" y1="0.999" x2="0.5" y2="0.442" gradientUnits="objectBoundingBox">
      <stop offset="0" stop-color="#982649"/>
      <stop offset="1" stop-color="#f5a623"/>
    </linearGradient>
  </defs>
  <g id="Group_1002" data-name="Group 1002" transform="translate(-1320 -348.456)">
    <path id="sun_8" data-name="sun 8" d="M88.492,148.979,21.2,162.726a17.544,17.544,0,1,1,0-34.957l67.3,13.747Zm181.134-21.21-67.3,13.747v7.463l67.3,13.747a17.544,17.544,0,1,0,0-34.957Zm-81.631-20.031L245.339,69.9a17.544,17.544,0,1,0-24.745-24.745L182.758,102.5Zm-85.494,0,5.237-5.237L69.9,45.156A17.544,17.544,0,1,0,45.156,69.9ZM145.248,96.02A49.228,49.228,0,0,0,96.02,145.248c1.148,32.8,49.391,59.958,49.391,59.958s47.789-27.292,48.8-59.958A49.228,49.228,0,0,0,145.247,96.02Zm3.731-7.528,13.747-67.3a17.544,17.544,0,1,0-34.957,0l13.747,67.3Zm34.695-18.526A7.135,7.135,0,1,0,170.582,64.6L165.41,92.027l2.815,1.178ZM121.812,93.532l2.749-1.178-5.5-27.429A7.135,7.135,0,1,0,105.97,70.49ZM69.966,107.018A7.135,7.135,0,1,0,64.6,120.11l27.429,5.172,1.178-2.815Zm160.382,2.553a7.135,7.135,0,0,0-10.147-3.6l-23.043,15.776,1.178,2.815,27.363-5.5a7.135,7.135,0,0,0,4.648-9.492Z" transform="translate(1414.589 346.317)" fill="url(#linear-gradient)"/>
    <g id="Group_1000" data-name="Group 1000">
      <path id="Path_3614" data-name="Path 3614" d="M1,8.31S14.54,25.537,58.791,27.338,131.7,4.039,177,7.2s64,41.1,64,41.1-26.578-28.74-68.76-28.74C144.188,19.567,85.221,39.18,69.506,40A81.514,81.514,0,0,1,42.68,37.661C36.31,36.1,22.4,31.549,11.73,22.134S1,8.31,1,8.31Z" transform="translate(1319 503.7)" fill="#201087"/>
      <path id="Path_3612" data-name="Path 3612" d="M0,0S14.54,25.537,58.791,27.338,131.7,4.039,177,7.2,240,40,240,40s-25.578-20.433-67.76-20.433C144.188,19.567,85.221,39.18,69.506,40A81.514,81.514,0,0,1,42.68,37.661C36.31,36.1,22.4,31.549,11.73,22.134A36.339,36.339,0,0,1,0,0Z" transform="translate(1320 512)" fill="#73eedc"/>
    </g>
    <g id="Group_1001" data-name="Group 1001" transform="translate(1560 510.628)">
      <path id="Path_3614-2" data-name="Path 3614" d="M241,8.31s-13.54,17.227-57.791,19.028S110.3,4.039,65,7.2s-64,41.1-64,41.1,26.578-28.74,68.76-28.74c28.051,0,87.019,19.613,102.733,20.433a81.514,81.514,0,0,0,26.826-2.339c6.37-1.557,20.279-6.112,30.949-15.527S241,8.31,241,8.31Z" transform="translate(-1 -6.928)" fill="#201087"/>
      <path id="Path_3612-2" data-name="Path 3612" d="M240,0s-14.54,25.537-58.791,27.338S108.3,4.039,63,7.2,0,40,0,40,25.578,19.567,67.76,19.567c28.051,0,87.019,19.613,102.733,20.433a81.514,81.514,0,0,0,26.826-2.339c6.37-1.557,20.279-6.112,30.949-15.527A36.339,36.339,0,0,0,240,0Z" transform="translate(0 1.372)" fill="#73eedc"/>
    </g>
  </g>
</svg>
